PathFileType	4	(X/Y/Z)	Run_500 01
DataRate	CameraRate	NumFrames	NumMarkers	Units	OrigDataRate	OrigDataStartFrame	OrigNumFrames
120	120	6	42	mm	120	72	128
Frame#	Time	RASI			LPSI			RPSI			RTH3			LTH1			LTH2			LTH3			RTB1			RTB2			RTB3			LTB1			LTB2			LTB3			RCAL			RTOE			RMT5			LCAL			LTOE			LMT5			LACR			RACR			CLAV			C7			RUA1			RUA2			RUA3			RLEL			LUA1			LUA2			LUA3			LLEL			LMEL			RFAsuperior			RFAradius			RFAulna			LFAsuperior			LFAradius			LFAulna			LASI			RTH1			RMEL			RTH2		
		X1	Y1	Z1	X2	Y2	Z2	X3	Y3	Z3	X4	Y4	Z4	X5	Y5	Z5	X6	Y6	Z6	X7	Y7	Z7	X8	Y8	Z8	X9	Y9	Z9	X10	Y10	Z10	X11	Y11	Z11	X12	Y12	Z12	X13	Y13	Z13	X14	Y14	Z14	X15	Y15	Z15	X16	Y16	Z16	X17	Y17	Z17	X18	Y18	Z18	X19	Y19	Z19	X20	Y20	Z20	X21	Y21	Z21	X22	Y22	Z22	X23	Y23	Z23	X24	Y24	Z24	X25	Y25	Z25	X26	Y26	Z26	X27	Y27	Z27	X28	Y28	Z28	X29	Y29	Z29	X30	Y30	Z30	X31	Y31	Z31	X32	Y32	Z32	X33	Y33	Z33	X34	Y34	Z34	X35	Y35	Z35	X36	Y36	Z36	X37	Y37	Z37	X38	Y38	Z38	X39	Y39	Z39	X40	Y40	Z40	X41	Y41	Z41	X42	Y42	Z42	

72	  0.600000	1051.766464	984.061116	-213.810467	874.517452	1032.942253	-363.408659	882.504495	1036.101713	-268.243591	845.934237	580.450185	-189.827044	1028.508669	820.237965	-493.047582	1125.377784	747.815942	-466.921467	1115.912846	622.288166	-429.055788	684.869196	467.925789	-252.584726	628.576413	516.303397	-193.509997	562.939127	505.996146	-255.777221	1238.049371	436.929895	-340.471745	1220.957689	350.089947	-410.251739	1267.188464	270.022289	-330.698436	437.320947	636.505950	-260.520042	340.257296	448.697191	-287.047510	327.802539	478.131151	-195.259440	1212.253696	 96.198103	-321.187013	1399.955833	183.537240	-294.157555	1405.257091	144.788276	-376.682897	964.622532	1457.983261	-512.208527	1011.913499	1459.047549	-133.202321	1044.207966	1445.264526	-308.627578	918.530850	1502.169545	-330.023934	965.888035	1336.226991	-65.606660	890.366374	1335.683343	-69.566837	931.268658	1264.963110	-25.065769	898.954189	1200.314685	 -0.928502	867.006657	1371.408998	-572.916848	792.863838	1354.684842	-550.200689	829.027706	1295.027093	-594.530254	753.960240	1249.320074	-614.978452	727.989190	1249.037449	-531.902134	996.197374	1137.520081	-55.869281	1057.623748	1084.220702	-146.845289	1054.378831	1035.620695	-95.263461	844.650574	1156.904387	-607.875022	934.530392	1100.367888	-529.171217	912.603754	1065.755663	-585.103044	1031.716857	1005.140676	-434.597946	948.656458	824.395088	-148.753949	849.238369	1180.279803	-65.729008	  0.000000	  0.000000	 -0.000000	
73	  0.608333	1051.297081	978.284850	-213.995761	872.559590	1025.714892	-361.544759	881.382562	1028.055700	-265.993997	858.049926	570.286513	-186.937702	1024.885410	815.470044	-491.142847	1121.476895	744.477285	-464.766915	1111.054596	615.337066	-429.188821	702.085554	465.373487	-248.340562	648.699329	518.487229	-190.389279	583.286701	512.413348	-253.008116	1227.922264	425.060022	-339.962681	1203.622627	338.600376	-408.001955	1249.831631	257.534441	-328.646845	466.214206	652.132178	-261.453149	359.934223	468.728408	-283.621810	349.844903	500.303745	-192.353171	1186.195066	 92.792350	-317.094263	1378.319178	162.267497	-291.217338	1380.589363	123.439644	-373.531298	967.808035	1450.806359	-513.249346	1010.254505	1452.438852	-133.012077	1044.576292	1438.662991	-308.431001	919.435184	1496.680765	-331.264205	961.053320	1330.235683	-66.174890	885.680423	1331.836093	-71.039842	924.085395	1259.141906	-27.342703	889.549245	1196.469142	 -1.932133	871.706573	1361.423161	-574.626402	797.474229	1343.610569	-553.841574	835.825685	1283.368627	-596.132196	761.190085	1237.173562	-617.286330	734.387372	1237.078494	-534.409162	985.154760	1127.511577	-52.406588	1046.464108	1068.099162	-139.436258	1039.712654	1021.365319	-86.344323	852.557965	1145.157683	-609.701150	942.548871	1090.127025	-530.361019	921.554393	1055.304896	-586.526273	1029.072412	999.434100	-435.232159	951.263309	816.200552	-148.269445	840.702822	1176.828388	-67.500095	 -0.000000	 -0.000000	  0.000000	
74	  0.616667	1049.430833	971.833314	-213.259260	870.310545	1017.664517	-359.619078	878.872384	1019.191796	-263.048831	871.081085	560.092575	-183.846839	1021.283833	809.484870	-489.959973	1117.497336	739.637659	-463.441112	1105.667819	607.343602	-429.404034	720.760847	462.221631	-243.950974	670.654298	519.778280	-187.131628	605.426966	516.805641	-249.991536	1218.264802	413.087034	-339.260766	1185.706629	326.995793	-404.878010	1231.756601	245.219033	-325.483096	496.325835	664.653124	-262.063609	382.884996	485.276060	-280.456963	374.489883	518.754002	-189.792911	1158.482766	 93.013734	-312.631255	1354.918393	137.814831	-286.070349	1353.623677	101.695012	-369.126555	971.304392	1442.748518	-514.412429	1008.146840	1445.271875	-132.552128	1044.962709	1431.550362	-308.179201	920.348240	1490.744509	-332.557087	955.719248	1323.259868	-66.810186	880.560328	1327.116994	-72.278741	916.290734	1252.431721	-29.966470	879.534250	1192.180459	 -3.127035	876.910405	1350.482791	-576.644109	802.552009	1331.582719	-557.810724	842.865879	1270.986429	-597.867452	768.884139	1224.280330	-619.868358	741.027078	1224.227003	-537.382260	973.114190	1117.107644	-48.821807	1033.777726	1051.374089	-131.675547	1023.508896	1007.003031	-76.981099	861.149620	1132.931621	-611.335125	951.107934	1079.777551	-531.044599	931.307085	1044.585734	-587.333911	1026.096851	993.156694	-435.994460	954.111955	807.293183	-147.989662	831.833520	1172.885549	-69.605691	 -0.000000	 -0.000000	  0.000000	
75	  0.625000	1046.642233	964.896650	-212.059691	867.232186	1009.251142	-357.633232	875.374120	1009.447951	-259.824471	885.372212	549.818075	-180.142061	1017.459566	802.327165	-489.991478	1113.293915	732.504989	-463.812579	1099.433397	599.007915	-428.750492	740.996293	458.198592	-239.606637	694.170778	519.659847	-183.908989	629.137394	519.151792	-246.872678	1208.900146	402.564016	-337.577702	1169.611690	316.879996	-400.476053	1212.446356	234.289877	-320.851477	527.683901	673.688181	-262.234470	408.084805	498.355979	-277.786900	401.222619	533.238297	-187.515467	1128.976997	 95.898952	-307.241869	1329.120379	113.658408	-279.501708	1323.919420	 82.864771	-364.275247	975.138592	1433.999291	-515.829381	1005.563072	1437.766067	-131.798145	1045.403895	1424.133340	-307.810069	921.180002	1484.525244	-333.952421	949.740107	1315.636890	-67.452413	874.886009	1321.667598	-73.424250	907.864479	1245.124019	-32.727988	869.024894	1187.482924	 -4.543188	882.614525	1338.618103	-578.920378	808.049670	1318.674839	-562.045685	850.134115	1257.970758	-599.674732	777.039903	1210.724370	-622.667567	747.962399	1210.543336	-540.687707	960.141284	1106.373080	-45.097251	1019.649481	1034.265272	-123.541112	1005.640043	992.656211	-67.384353	870.483805	1120.464398	-612.680196	960.330454	1069.639101	-531.104339	941.905806	1033.836644	-587.400606	1022.351399	986.498871	-436.914191	957.399951	798.101418	-147.739259	822.710694	1168.528044	-72.028558	 -0.000000	 -0.000000	  0.000000	
76	  0.633333	1043.793668	957.568784	-211.193620	862.846668	1001.263922	-355.420776	871.649356	999.001682	-256.853578	901.271274	539.708406	-175.575807	1013.186508	794.752634	-491.120778	1108.747199	723.374794	-465.800515	1092.625361	591.576082	-427.095232	762.934265	453.435924	-235.514613	718.902960	517.823594	-180.753844	654.329101	519.595871	-243.861634	1198.897280	394.878262	-334.474367	1156.457070	310.031872	-395.449213	1191.054728	226.083832	-315.595160	560.022156	679.109710	-261.904358	434.810832	507.945162	-275.723746	429.607697	543.474717	-185.448853	1097.080973	 99.921549	-301.399293	1299.757417	 94.108920	-272.816485	1291.014651	 69.914673	-359.873773	979.214906	1424.846207	-517.561889	1002.472156	1430.208121	-130.756887	1045.915738	1416.733683	-307.255760	921.924064	1478.232786	-335.533762	943.052866	1307.868445	-68.071717	868.572056	1315.705917	-74.674426	898.887070	1237.646763	-35.362848	858.148205	1182.451920	 -6.233495	888.853029	1325.869026	-581.351899	813.897128	1304.997766	-566.560491	857.661729	1244.391794	-601.537990	785.697062	1196.594866	-625.612709	755.184525	1196.218171	-544.148232	946.256835	1095.388154	-41.193476	1004.149849	1017.078875	-114.973923	986.035232	978.483138	-57.766023	880.616478	1107.984605	-613.607185	970.320054	1059.979529	-530.381450	953.391740	1023.317774	-586.632692	1017.490716	979.854445	-437.775722	961.112344	789.186975	-147.487823	813.395222	1163.889973	-74.775147	  0.000000	  0.000000	 -0.000000	
77	  0.641667	1041.337990	949.890689	-211.396509	857.174287	994.574384	-352.811504	868.203275	988.621013	-254.455362	919.008198	530.338220	-170.304747	1008.264702	788.018541	-492.727519	1103.561847	713.822350	-468.362661	1086.087026	586.131902	-425.449728	786.681244	448.391220	-231.894727	744.627650	514.370386	-177.642071	680.957602	518.394490	-241.168040	1187.141818	390.434373	-330.404913	1144.817291	307.233155	-391.278120	1167.149252	221.320227	-311.252105	592.532404	681.277545	-261.078792	462.696212	513.861099	-274.112087	459.246345	549.227633	-183.450461	1062.420367	103.763797	-296.280484	1266.194448	 81.824598	-267.352053	1254.965506	 63.587650	-356.564942	983.341666	1415.641672	-519.512761	998.866404	1422.919858	-129.540237	1046.458972	1409.734236	-306.472383	922.718099	1472.146735	-337.342980	935.751632	1300.540627	-68.696459	861.630492	1309.509522	-76.300614	889.550530	1230.533343	-37.616341	847.028257	1177.264803	 -8.264445	895.697314	1312.456408	-583.694417	820.077564	1290.769696	-571.375750	865.547806	1230.454586	-603.380703	794.979446	1182.042862	-628.575529	762.599673	1181.563902	-547.636883	931.458387	1084.345633	-37.093873	987.291295	1000.184213	-106.028755	964.722163	964.776694	-48.314972	891.628391	1095.730351	-613.953495	981.088240	1051.026656	-528.739219	965.804761	1013.331443	-584.956645	1011.566776	973.812632	-438.163894	965.243500	781.034139	-147.356289	803.960087	1159.160970	-77.879495	  0.000000	  0.000000	 -0.000000	
